<?xml version="1.0" encoding="UTF-8" standalone="no"?>
<!-- Generator: Adobe Illustrator 22.1.0, SVG Export Plug-In . SVG Version: 6.00 Build 0)  -->

<svg
   xmlns:dc="http://purl.org/dc/elements/1.1/"
   xmlns:cc="http://creativecommons.org/ns#"
   xmlns:rdf="http://www.w3.org/1999/02/22-rdf-syntax-ns#"
   xmlns:svg="http://www.w3.org/2000/svg"
   xmlns="http://www.w3.org/2000/svg"
   xmlns:sodipodi="http://sodipodi.sourceforge.net/DTD/sodipodi-0.dtd"
   xmlns:inkscape="http://www.inkscape.org/namespaces/inkscape"
   version="1.1"
   id="Artwork"
   x="0px"
   y="0px"
   viewBox="0 0 210.92282 210.92285"
   xml:space="preserve"
   sodipodi:docname="cog.svg"
   width="210.92282"
   height="210.92285"
   inkscape:version="0.92.4 (5da689c313, 2019-01-14)"><metadata
   id="metadata21"><rdf:RDF><cc:Work
       rdf:about=""><dc:format>image/svg+xml</dc:format><dc:type
         rdf:resource="http://purl.org/dc/dcmitype/StillImage" /><dc:title></dc:title></cc:Work></rdf:RDF></metadata><defs
   id="defs19">
	
	
	
	

		
		
	</defs><sodipodi:namedview
   pagecolor="#ffffff"
   bordercolor="#666666"
   borderopacity="1"
   objecttolerance="10"
   gridtolerance="10"
   guidetolerance="10"
   inkscape:pageopacity="0"
   inkscape:pageshadow="2"
   inkscape:window-width="1813"
   inkscape:window-height="806"
   id="namedview17"
   showgrid="false"
   fit-margin-top="0"
   fit-margin-left="0"
   fit-margin-right="0"
   fit-margin-bottom="0"
   inkscape:zoom="0.81944444"
   inkscape:cx="139.12075"
   inkscape:cy="125.76651"
   inkscape:window-x="0"
   inkscape:window-y="0"
   inkscape:window-maximized="0"
   inkscape:current-layer="Artwork" />
<style
   type="text/css"
   id="style2">
	.st0{fill:none;}
	.st1{fill:#F29111;}
	.st2{fill:#AAC3CF;}
	.st3{fill:#8AADBF;}
	.st4{fill:#6D8C9E;}
</style>
<g
   id="g33"
   transform="matrix(2.3407448,0,0,2.3407448,-165.67221,-202.0093)"><path
     style="fill:#aac3cf"
     inkscape:connector-curvature="0"
     id="path7"
     d="m 125.3322,97.255932 c 3,0.8 5.9,2.1 8.6,3.699998 l 10.2,-4.699998 c 2.8,2.2 5.3,4.799998 7.5,7.599998 l -4.9,10.10001 c 0.8,1.3 1.4,2.7 2,4.2 0.6,1.5 1.1,3 1.4,4.5 l 10.5,3.9 c 0.4,3.6 0.3,7.2 -0.1,10.7 l -10.6,3.6 c -0.8,3 -2.1,5.9 -3.7,8.6 l 4.7,10.2 c -2.2,2.8 -4.8,5.3 -7.6,7.5 l -10.1,-4.9 c -1.3,0.8 -2.7,1.4 -4.2,2 -1.5,0.6 -3,1.1 -4.5,1.4 l -3.9,10.5 c -3.6,0.4 -7.2,0.3 -10.7,-0.1 l -3.6,-10.6 c -3,-0.8 -5.9,-2.1 -8.599997,-3.7 l -10.2,4.7 c -2.8,-2.2 -5.3,-4.8 -7.5,-7.6 l 4.9,-10.1 c -0.8,-1.3 -1.4,-2.7 -2,-4.2 -0.6,-1.5 -1.1,-3 -1.4,-4.4 l -10.5,-3.9 c -0.4,-3.6 -0.3,-7.2 0.1,-10.7 l 10.6,-3.6 c 0.8,-3 2.1,-5.9 3.7,-8.6 l -4.7,-10.20001 c 2.2,-2.8 4.8,-5.299998 7.6,-7.499998 l 10.1,4.899998 c 1.3,-0.799998 2.699997,-1.399998 4.199997,-1.999998 1.5,-0.6 3,-1.1 4.5,-1.5 l 3.9,-10.5 c 3.6,-0.4 7.2,-0.3 10.7,0.1 z m 3.7,30.500008 c -1.9,-7.2 -9.4,-11.5 -16.6,-9.6 -7.2,1.9 -11.5,9.4 -9.6,16.6 1.9,7.2 9.4,11.5 16.6,9.6 7.2,-2 11.5,-9.4 9.6,-16.6"
     class="st2" /><path
     style="fill:#8aadbf"
     inkscape:connector-curvature="0"
     id="path9"
     d="m 144.1322,123.65594 c -4.2,-15.6 -20.2,-24.800008 -35.8,-20.70001 -15.599997,4.20001 -24.799997,20.20001 -20.699997,35.80001 4.2,15.6 20.199997,24.8 35.799997,20.7 15.7,-4.1 24.9,-20.2 20.7,-35.8 z m -24.7,20.7 c -7.2,1.9 -14.6,-2.4 -16.6,-9.6 -1.9,-7.2 2.3,-14.6 9.6,-16.6 7.2,-1.9 14.6,2.4 16.6,9.6 1.9,7.2 -2.4,14.6 -9.6,16.6 z"
     class="st3" /></g>
</svg>