<?xml version="1.0" encoding="UTF-8" standalone="no"?>
<svg
   width="150.44868"
   height="19.480776"
   overflow="hidden"
   version="1.1"
   id="svg11"
   viewBox="0 0 465.7854 60.311999"
   xmlns="http://www.w3.org/2000/svg"
   xmlns:svg="http://www.w3.org/2000/svg"
   xmlns:rdf="http://www.w3.org/1999/02/22-rdf-syntax-ns#"
   xmlns:cc="http://creativecommons.org/ns#"
   xmlns:dc="http://purl.org/dc/elements/1.1/">
  <metadata
     id="metadata15">
    <rdf:RDF>
      <cc:Work
         rdf:about="">
        <dc:format>image/svg+xml</dc:format>
        <dc:type
           rdf:resource="http://purl.org/dc/dcmitype/StillImage" />
      </cc:Work>
    </rdf:RDF>
  </metadata>
  <defs
     id="defs5">
    <clipPath
       id="clip0">
      <rect
         x="383"
         y="306"
         width="514"
         height="108"
         id="rect2" />
    </clipPath>
  </defs>
  <g
     clip-path="url(#clip0)"
     transform="translate(-407.10883,-329.8435)"
     id="g9">
    <path
       d="m 224.238,62.8241 h 30.641 L 238.69,36.699 208.973,83.8845 h -13.575 l 36.18,-56.6282 c 1.545,-2.2942 4.196,-3.6838 7.094,-3.6838 2.834,0 5.439,1.3437 6.983,3.5832 l 36.29,56.7288 h -13.537 l -6.38,-10.5487 H 231.002 L 224.238,62.8241 M 364.827,73.3358 V 24.1486 h -11.509 v 54.0233 c 0,1.4719 0.622,2.9162 1.701,3.9576 1.097,1.134 2.605,1.755 4.186,1.755 h 52.333 l 6.819,-10.5487 h -53.53 M 174.811,64.5427 c 11.183,0 20.176,-9.0501 20.176,-20.2018 0,-11.152 -8.993,-20.1923 -20.176,-20.1923 h -50.257 v 59.7359 h 11.485 V 34.7062 h 38.008 c 5.335,0 9.658,4.3058 9.658,9.6347 0,5.3202 -4.323,9.6985 -9.658,9.6985 l -32.391,-0.0271 34.307,29.8722 h 16.665 L 169.587,64.5427 h 5.224 M 53.8887,83.8845 h 34.7219 c 16.5184,0 29.8184,-13.3455 29.8184,-29.8451 0,-16.5176 -13.3,-29.8908 -29.8184,-29.8908 H 53.8887 c -16.4993,0 -29.8819,13.3732 -29.8819,29.8908 0,16.4996 13.3826,29.8451 29.8819,29.8451 M 87.8159,73.3724 H 54.6525 c -10.6725,0 -19.3201,-8.6748 -19.3201,-19.333 0,-10.7038 8.6476,-19.3332 19.3201,-19.3332 h 33.1634 c 10.7083,0 19.3471,8.6294 19.3471,19.3332 0,10.6582 -8.6388,19.333 -19.3471,19.333 M 305.931,83.8845 h 35.449 l 6.709,-10.5121 h -41.371 c -10.723,0 -19.361,-8.6748 -19.361,-19.333 0,-10.7038 8.638,-19.3332 19.361,-19.3332 h 33.675 l 6.792,-10.5576 h -41.254 c -16.508,0 -29.918,13.3732 -29.918,29.8908 0,16.4996 13.41,29.8451 29.918,29.8451 M 446.402,73.3724 c -8.849,0 -16.308,-5.9411 -18.612,-14.0678 h 49.089 l 6.763,-10.5304 H 427.79 c 2.295,-8.1443 9.763,-14.068 18.612,-14.068 h 33.702 l 6.739,-10.5576 h -41.209 c -16.482,0 -29.855,13.3732 -29.855,29.8908 0,16.4996 13.373,29.8451 29.855,29.8451 h 35.448 l 6.739,-10.5121 h -41.419"
       fill="#c74634"
       transform="matrix(1.00425,0,0,1,383,306.271)"
       id="path7" />
  </g>
</svg>
