<?xml version="1.0" encoding="UTF-8" standalone="no"?>
<svg
   xmlns:dc="http://purl.org/dc/elements/1.1/"
   xmlns:cc="http://creativecommons.org/ns#"
   xmlns:rdf="http://www.w3.org/1999/02/22-rdf-syntax-ns#"
   xmlns:svg="http://www.w3.org/2000/svg"
   xmlns="http://www.w3.org/2000/svg"
   width="39"
   height="39"
   viewBox="0 0 39 39"
   version="1.1"
   id="svg10">
  <metadata
     id="metadata16">
    <rdf:RDF>
      <cc:Work
         rdf:about="">
        <dc:format>image/svg+xml</dc:format>
        <dc:type
           rdf:resource="http://purl.org/dc/dcmitype/StillImage" />
        <dc:title></dc:title>
      </cc:Work>
    </rdf:RDF>
  </metadata>
  <defs
     id="defs14" />
  <circle
     cx="19.5"
     cy="19.5"
     r="17.5"
     id="circle2"
     style="fill:none" />
  <g
     style="fill:#204a31;stroke-width:0.79507107"
     transform="matrix(-1.2577493,0,0,-1.2577493,29.830771,30.15851)"
     id="g8">
    <path
       d="m 1383.786,1023.807 a 20.261,20.261 0 0 0 -0.015,-2.276 5.034,5.034 0 0 1 1.1,-3.782 5.911,5.911 0 0 0 1.329,-4.6 c -0.115,-0.828 0.285,-1.084 1.123,-0.9 a 2.936,2.936 0 0 1 1.976,2.8 9.158,9.158 0 0 1 -0.061,1.864 c -0.067,0.462 0.06,0.568 0.488,0.563 1.224,-0.017 2.449,-0.025 3.672,0 1.751,0.033 2.385,1.168 1.454,2.632 -0.2,0.317 -0.044,0.4 0.118,0.589 0.8,0.914 0.721,1.608 -0.271,2.3 -0.253,0.176 -0.389,0.249 -0.2,0.609 a 1.255,1.255 0 0 1 -0.643,1.881 c -0.362,0.2 -0.491,0.321 -0.346,0.786 a 1.63,1.63 0 0 1 -1.466,1.955 c -2.584,0.043 -5.17,0.01 -7.755,0.027 -0.48,0 -0.507,-0.253 -0.5,-0.619 0,-1.28 0,-2.555 0,-3.829 z"
       transform="translate(-1379.24,-1012.19)"
       id="path4"
       style="fill:#204a31;stroke-width:0.79507107" />
    <path
       d="m 1383.256,1023.612 c 0,1.523 -0.02,3.048 0.012,4.571 0.011,0.505 -0.137,0.664 -0.64,0.64 -0.787,-0.039 -1.578,-0.021 -2.366,0 -0.382,0.01 -0.591,-0.046 -0.588,-0.518 q 0.029,-4.735 0,-9.469 c 0,-0.393 0.131,-0.521 0.517,-0.511 0.842,0.021 1.687,0.03 2.529,0 0.442,-0.017 0.549,0.142 0.543,0.56 -0.021,1.577 -0.01,3.156 -0.01,4.734 z"
       transform="translate(-1379.674,-1011.512)"
       id="path6"
       style="fill:#204a31;stroke-width:0.79507107" />
  </g>
</svg>
